<svg width="57" height="21" viewBox="0 0 57 21" fill="none" xmlns="http://www.w3.org/2000/svg">
<path d="M5.35901 20.194C4.79168 20.194 4.38534 20.0713 4.14001 19.826C3.89468 19.5653 3.77201 19.0823 3.77201 18.377C3.77201 17.9016 3.81801 17.3266 3.91001 16.652C4.00201 15.9773 4.16301 14.9576 4.39301 13.593C4.42368 13.409 4.54634 12.6653 4.76101 11.362C4.97568 10.0433 5.16734 8.66331 5.33601 7.22198C5.48934 5.99531 5.56601 5.07531 5.56601 4.46198C5.56601 3.77198 5.31301 3.42698 4.80701 3.42698C4.42368 3.42698 3.94068 3.63398 3.35801 4.04798C2.79068 4.44665 2.17734 5.09065 1.51801 5.97998C1.30334 6.27131 1.06568 6.41698 0.80501 6.41698C0.590344 6.41698 0.398677 6.31731 0.23001 6.11798C0.0766769 5.90331 1.02528e-05 5.66565 1.02528e-05 5.40498C1.02528e-05 5.14431 0.0460103 4.89898 0.13801 4.66898C0.23001 4.42365 0.398677 4.13231 0.64401 3.79498C1.39534 2.76765 2.23101 1.97798 3.15101 1.42598C4.07101 0.858645 5.03701 0.574978 6.04901 0.574978C6.89234 0.574978 7.52101 0.835645 7.93501 1.35698C8.36434 1.87831 8.57901 2.63731 8.57901 3.63398C8.57901 4.52331 8.45634 5.81131 8.21101 7.49798C8.97768 5.22864 9.95134 3.51131 11.132 2.34598C12.3127 1.16531 13.7003 0.574978 15.295 0.574978C16.5523 0.574978 17.4953 0.935312 18.124 1.65598C18.768 2.36131 19.09 3.31198 19.09 4.50798C19.09 5.18265 18.9903 6.00298 18.791 6.96898L17.388 13.547C17.2347 14.3136 17.158 14.973 17.158 15.525C17.158 16.169 17.3037 16.652 17.595 16.974C17.9017 17.296 18.3233 17.457 18.86 17.457C19.366 17.457 19.8567 17.2883 20.332 16.951C20.8227 16.6136 21.3977 16.054 22.057 15.272C22.241 15.0573 22.448 14.95 22.678 14.95C22.8773 14.95 23.0307 15.042 23.138 15.226C23.2607 15.41 23.322 15.663 23.322 15.985C23.322 16.583 23.1763 17.0583 22.885 17.411C22.0877 18.377 21.298 19.0823 20.516 19.527C19.734 19.9716 18.9137 20.194 18.055 20.194C16.7517 20.194 15.732 19.8106 14.996 19.044C14.26 18.262 13.892 17.2193 13.892 15.916C13.892 15.41 13.9303 14.858 14.007 14.26C14.099 13.662 14.2447 12.903 14.444 11.983L15.364 7.77398C15.3947 7.63598 15.4483 7.39065 15.525 7.03798C15.6017 6.68531 15.663 6.35565 15.709 6.04898C15.755 5.72698 15.778 5.41265 15.778 5.10598C15.778 4.61531 15.64 4.22431 15.364 3.93298C15.088 3.64165 14.697 3.49598 14.191 3.49598C13.271 3.49598 12.351 3.98665 11.431 4.96798C10.511 5.94931 9.66001 7.53631 8.87801 9.72898C8.09601 11.9063 7.48268 14.697 7.03801 18.101C6.93068 18.883 6.76968 19.4273 6.55501 19.734C6.35568 20.0406 5.95701 20.194 5.35901 20.194ZM32.7242 13.018C32.9235 13.018 33.0768 13.1176 33.1842 13.317C33.2915 13.5163 33.3452 13.7693 33.3452 14.076C33.3452 14.812 33.1228 15.249 32.6782 15.387C31.7582 15.709 30.7462 15.893 29.6422 15.939C29.3508 17.227 28.7758 18.262 27.9172 19.044C27.0585 19.8106 26.0848 20.194 24.9962 20.194C24.0762 20.194 23.2865 19.9716 22.6272 19.527C21.9832 19.0823 21.4925 18.492 21.1552 17.756C20.8178 17.02 20.6492 16.2226 20.6492 15.364C20.6492 14.1986 20.8715 13.1636 21.3162 12.259C21.7608 11.339 22.3742 10.626 23.1562 10.12C23.9382 9.59865 24.8045 9.33798 25.7552 9.33798C26.9205 9.33798 27.8558 9.74431 28.5612 10.557C29.2818 11.3543 29.7035 12.3433 29.8262 13.524C30.5468 13.478 31.4055 13.3246 32.4022 13.064C32.5248 13.0333 32.6322 13.018 32.7242 13.018ZM25.1802 17.756C25.6708 17.756 26.0925 17.5566 26.4452 17.158C26.8132 16.7593 27.0585 16.1843 27.1812 15.433C26.7058 15.111 26.3378 14.6893 26.0772 14.168C25.8318 13.6466 25.7092 13.0946 25.7092 12.512C25.7092 12.2666 25.7322 12.0213 25.7782 11.776H25.6632C25.0498 11.776 24.5362 12.075 24.1222 12.673C23.7235 13.2556 23.5242 14.0836 23.5242 15.157C23.5242 16.0003 23.6852 16.6443 24.0072 17.089C24.3445 17.5336 24.7355 17.756 25.1802 17.756ZM41.7531 14.95C41.9524 14.95 42.1058 15.042 42.2131 15.226C42.3358 15.41 42.3971 15.663 42.3971 15.985C42.3971 16.5983 42.2514 17.0736 41.9601 17.411C41.3008 18.2236 40.5801 18.8906 39.7981 19.412C39.0161 19.9333 38.1191 20.194 37.1071 20.194C33.9791 20.194 32.4151 17.9936 32.4151 13.593C32.4151 12.9183 32.4381 12.236 32.4841 11.546H31.5871C31.1271 11.546 30.8128 11.4616 30.6441 11.293C30.4908 11.1243 30.4141 10.856 30.4141 10.488C30.4141 9.62931 30.7591 9.19998 31.4491 9.19998H32.7601C33.0208 7.51331 33.4194 5.97231 33.9561 4.57698C34.4928 3.18165 35.1368 2.06998 35.8881 1.24198C36.6548 0.413979 37.4751 -2.11e-05 38.3491 -2.11e-05C38.9931 -2.11e-05 39.4991 0.283646 39.8671 0.850979C40.2351 1.41831 40.4191 2.13131 40.4191 2.98998C40.4191 5.36665 39.4224 7.43665 37.4291 9.19998H40.0051C40.2504 9.19998 40.4268 9.25365 40.5341 9.36098C40.6414 9.46831 40.6951 9.66765 40.6951 9.95898C40.6951 11.017 39.8288 11.546 38.0961 11.546H35.2901C35.2594 12.3126 35.2441 12.9106 35.2441 13.34C35.2441 14.9346 35.4281 16.054 35.7961 16.698C36.1794 17.342 36.7774 17.664 37.5901 17.664C38.2494 17.664 38.8321 17.4646 39.3381 17.066C39.8441 16.6673 40.4421 16.0693 41.1321 15.272C41.3161 15.0573 41.5231 14.95 41.7531 14.95ZM37.7281 2.20798C37.4981 2.20798 37.2374 2.49931 36.9461 3.08198C36.6701 3.64931 36.4018 4.44665 36.1411 5.47398C35.8958 6.48598 35.6888 7.61298 35.5201 8.85498C36.4248 8.07298 37.0994 7.19898 37.5441 6.23298C38.0041 5.25165 38.2341 4.36231 38.2341 3.56498C38.2341 2.66031 38.0654 2.20798 37.7281 2.20798ZM50.3224 14.95C50.5217 14.95 50.6751 15.042 50.7824 15.226C50.9051 15.41 50.9664 15.663 50.9664 15.985C50.9664 16.5983 50.8207 17.0736 50.5294 17.411C49.9621 18.101 49.1571 18.7373 48.1144 19.32C47.0871 19.9026 45.9831 20.194 44.8024 20.194C43.1924 20.194 41.9427 19.757 41.0534 18.883C40.1641 18.009 39.7194 16.813 39.7194 15.295C39.7194 14.237 39.9417 13.2556 40.3864 12.351C40.8311 11.431 41.4444 10.7026 42.2264 10.166C43.0237 9.62931 43.9207 9.36098 44.9174 9.36098C45.8067 9.36098 46.5197 9.62931 47.0564 10.166C47.5931 10.6873 47.8614 11.4003 47.8614 12.305C47.8614 13.363 47.4781 14.2753 46.7114 15.042C45.9601 15.7933 44.6797 16.3913 42.8704 16.836C43.2537 17.5413 43.9821 17.894 45.0554 17.894C45.7454 17.894 46.5274 17.6563 47.4014 17.181C48.2907 16.6903 49.0574 16.054 49.7014 15.272C49.8854 15.0573 50.0924 14.95 50.3224 14.95ZM44.5264 11.615C43.9591 11.615 43.4761 11.9446 43.0774 12.604C42.6941 13.2633 42.5024 14.0606 42.5024 14.996V15.042C43.4071 14.8273 44.1201 14.5053 44.6414 14.076C45.1627 13.6466 45.4234 13.1483 45.4234 12.581C45.4234 12.2896 45.3391 12.0596 45.1704 11.891C45.0171 11.707 44.8024 11.615 44.5264 11.615ZM52.9117 20.7C52.1144 20.7 51.501 20.516 51.0717 20.148C50.6577 19.78 50.4507 19.366 50.4507 18.906C50.4507 18.5073 50.5964 18.1623 50.8877 17.871C51.179 17.5796 51.6084 17.434 52.1757 17.434C52.375 17.434 52.605 17.457 52.8657 17.503C53.1417 17.5336 53.3487 17.5566 53.4867 17.572C53.4714 17.1733 53.3794 16.7976 53.2107 16.445C53.0574 16.0923 52.858 15.755 52.6127 15.433C52.3674 15.0956 52.1374 14.8043 51.9227 14.559C51.4474 15.4636 50.972 16.215 50.4967 16.813C50.0367 17.411 49.5307 17.9783 48.9787 18.515C48.7027 18.791 48.4114 18.929 48.1047 18.929C47.8594 18.929 47.66 18.8446 47.5067 18.676C47.3534 18.492 47.2767 18.2696 47.2767 18.009C47.2767 17.7023 47.384 17.4186 47.5987 17.158L47.8977 16.79C48.741 15.7473 49.3774 14.8886 49.8067 14.214C50.0827 13.7693 50.3587 13.2403 50.6347 12.627C50.926 12.0136 51.3017 11.178 51.7617 10.12C52.053 9.44531 52.6587 9.10798 53.5787 9.10798C54.008 9.10798 54.307 9.14631 54.4757 9.22298C54.6444 9.29965 54.7287 9.42231 54.7287 9.59098C54.7287 9.68298 54.698 9.82865 54.6367 10.028C54.5754 10.2273 54.491 10.4266 54.3837 10.626C54.1077 11.178 53.9697 11.6456 53.9697 12.029C53.9697 12.259 54.0464 12.512 54.1997 12.788C54.3684 13.064 54.6214 13.409 54.9587 13.823C55.4494 14.467 55.8174 15.019 56.0627 15.479C56.3234 15.9236 56.4537 16.4143 56.4537 16.951C56.4537 17.595 56.3004 18.2083 55.9937 18.791C55.7024 19.3583 55.2884 19.8183 54.7517 20.171C54.215 20.5236 53.6017 20.7 52.9117 20.7Z" fill="#0E121B"/>
</svg>
